<?xml version="1.0" standalone="no"?>
<!DOCTYPE svg PUBLIC "-//W3C//DTD SVG 20010904//EN"
 "http://www.w3.org/TR/2001/REC-SVG-20010904/DTD/svg10.dtd">
<svg version="1.0" xmlns="http://www.w3.org/2000/svg"
 width="180.000000pt" height="186.000000pt" viewBox="0 0 180.000000 186.000000"
 preserveAspectRatio="xMidYMid meet">
<metadata>
Created by potrace 1.13, written by Peter Selinger 2001-2015
</metadata>
<g transform="translate(0.000000,186.000000) scale(0.100000,-0.100000)"
fill="#000000" stroke="none">
<path d="M613 1823 c-39 -27 -25 -32 30 -11 65 25 69 28 26 27 -19 0 -44 -7
-56 -16z"/>
<path d="M760 1824 c0 -11 6 -14 23 -9 38 12 43 25 9 25 -22 0 -32 -5 -32 -16z"/>
<path d="M36 1761 c-11 -12 -16 -31 -14 -52 3 -33 3 -32 20 19 9 28 15 52 14
52 -2 0 -11 -9 -20 -19z"/>
<path d="M530 1755 c-24 -14 -24 -14 -4 -15 12 0 24 7 28 15 6 18 7 18 -24 0z"/>
<path d="M470 1740 c0 -5 5 -10 10 -10 6 0 10 5 10 10 0 6 -4 10 -10 10 -5 0
-10 -4 -10 -10z"/>
<path d="M80 1661 c0 -6 -13 -18 -30 -28 -28 -16 -30 -21 -30 -77 0 -53 2 -58
14 -46 12 12 66 141 66 156 0 2 -4 4 -10 4 -5 0 -10 -4 -10 -9z"/>
<path d="M188 1604 c-27 -13 -48 -30 -48 -37 0 -6 -27 -30 -60 -52 -54 -36
-60 -43 -59 -75 l0 -35 19 25 c57 71 117 132 156 156 24 16 44 32 44 36 0 10
3 11 -52 -18z"/>
<path d="M550 1598 c-8 -13 -18 -30 -22 -39 -4 -11 -15 -14 -36 -11 -23 3 -37
-2 -56 -21 -14 -14 -28 -21 -31 -16 -10 16 -25 10 -37 -16 -8 -19 -8 -28 3
-41 7 -9 12 -30 11 -46 -2 -26 0 -29 12 -19 12 10 17 7 29 -16 35 -68 61 -203
39 -203 -17 0 -32 52 -32 108 l-1 57 -24 -28 c-28 -31 -26 -53 6 -118 32 -64
74 -59 85 11 l6 37 100 -55 c86 -48 102 -53 123 -44 19 9 33 8 59 -3 36 -15
131 -20 161 -9 27 11 58 82 51 119 -14 73 -76 125 -219 183 -107 44 -122 67
-42 67 35 -1 72 -11 123 -35 92 -42 105 -37 113 46 3 32 9 68 14 79 l8 20 -23
-20 c-12 -11 -29 -35 -37 -52 -7 -18 -14 -33 -16 -33 -1 0 -27 9 -57 21 -77
29 -157 30 -197 1 -17 -12 -33 -22 -36 -22 -12 0 -47 70 -47 94 0 32 -10 33
-30 4z m-36 -139 c32 -37 33 -67 5 -121 l-21 -42 -23 70 c-12 38 -28 82 -36
97 -11 24 -11 30 1 37 18 11 41 -2 74 -41z m128 -71 c32 -39 38 -52 28 -58
-15 -9 -132 -32 -137 -26 -2 2 6 23 17 47 11 24 20 59 20 78 0 40 8 36 72 -41z
m164 -54 c79 -39 158 -113 152 -142 -8 -40 -161 -1 -220 55 -22 21 -28 36 -28
68 0 38 6 55 18 55 3 0 38 -16 78 -36z m-146 -68 c0 -13 3 -32 7 -41 5 -14 -1
-13 -35 6 -23 13 -42 27 -42 30 0 5 46 26 63 28 4 1 7 -10 7 -23z"/>
<path d="M1220 1480 c0 -16 7 -30 16 -34 21 -8 34 1 34 23 0 9 4 21 9 27 6 5
-3 10 -25 11 -31 1 -34 -1 -34 -27z"/>
<path d="M1277 1369 c-60 -14 -112 -45 -169 -101 -53 -53 -105 -118 -93 -118
3 0 29 17 58 39 74 55 130 81 177 81 35 0 47 -6 84 -45 47 -48 56 -51 105 -34
32 11 32 11 9 23 -16 8 -24 21 -26 46 -4 60 -12 79 -35 94 -32 20 -67 25 -110
15z"/>
<path d="M1476 1186 l-50 -31 -165 0 c-149 0 -172 -3 -222 -23 -30 -12 -64
-28 -74 -36 -16 -12 -10 -12 38 1 52 13 70 13 165 -1 149 -22 216 -21 270 5
41 20 98 87 90 107 -1 4 -25 -5 -52 -22z"/>
<path d="M1490 1111 c0 -24 13 -33 34 -25 27 10 20 44 -9 44 -18 0 -25 -5 -25
-19z"/>
<path d="M170 1008 c0 -61 -11 -178 -26 -267 -10 -64 16 -50 38 20 36 110 48
128 104 155 71 34 144 99 144 130 0 30 -19 31 -77 3 -40 -19 -133 -110 -133
-130 0 -5 -7 -9 -16 -9 -13 0 -14 9 -9 55 4 30 4 66 1 80 -12 46 -26 26 -26
-37z m192 -11 c-36 -37 -92 -73 -92 -58 0 14 91 91 108 91 11 0 6 -10 -16 -33z"/>
<path d="M530 1011 c0 -22 -6 -44 -15 -51 -9 -8 -12 -18 -6 -27 5 -10 1 -39
-11 -77 -22 -70 -21 -131 2 -131 10 0 20 20 29 60 12 50 16 56 25 41 56 -95
129 -149 198 -144 28 2 43 -4 63 -25 36 -35 81 -43 131 -22 95 39 112 91 65
195 -40 90 -40 132 -2 171 49 49 74 33 40 -26 -29 -48 -19 -53 25 -14 28 24
36 38 34 58 -7 58 -128 28 -163 -39 -21 -41 -19 -71 11 -143 50 -121 52 -151
9 -167 -24 -9 -101 4 -122 22 -10 8 -11 14 -2 25 21 24 0 27 -31 4 -60 -44
-153 3 -208 106 l-32 61 35 6 c19 4 43 18 55 33 24 31 27 88 4 97 -17 7 -78
-16 -88 -33 -14 -22 -26 -10 -26 24 0 19 -4 35 -10 35 -5 0 -10 -17 -10 -39z
m125 -21 c12 -19 -7 -52 -38 -65 -60 -25 -77 6 -26 49 32 27 54 33 64 16z
m-144 -197 c-9 -16 -10 -16 -11 -1 0 9 3 25 7 35 7 16 8 17 11 1 2 -10 -1 -25
-7 -35z"/>
<path d="M819 973 c-17 -52 -32 -78 -66 -109 -45 -42 -58 -84 -25 -84 9 0 24
5 32 10 12 7 16 4 20 -18 3 -15 12 -27 20 -27 11 0 17 19 22 80 4 44 14 105
22 135 18 64 20 80 7 80 -5 0 -19 -30 -32 -67z m-29 -121 c0 -14 -39 -46 -47
-39 -3 4 2 16 12 27 19 21 35 26 35 12z"/>
<path d="M1240 968 c-6 -24 -26 -92 -46 -152 -19 -59 -33 -111 -30 -113 11
-11 30 13 56 72 16 35 38 68 49 75 26 13 26 3 1 -30 -22 -28 -26 -60 -7 -60
18 0 38 15 35 26 -1 5 6 24 16 42 9 18 16 42 14 53 -3 19 -4 19 -40 -1 -21
-11 -40 -20 -42 -20 -2 0 4 28 15 63 23 75 23 87 4 87 -8 0 -18 -17 -25 -42z"/>
<path d="M1685 973 c-14 -16 -42 -54 -63 -85 -20 -32 -42 -58 -48 -58 -6 0
-14 14 -17 30 -6 28 -9 30 -52 30 -38 0 -47 -4 -56 -24 -11 -23 -12 -23 -30
-5 -10 10 -25 19 -33 19 -24 0 -56 -50 -56 -86 0 -30 3 -34 25 -34 14 0 33 9
43 20 l17 21 5 -23 c9 -38 63 -37 101 1 36 37 51 33 38 -11 -6 -21 -5 -36 2
-45 19 -22 98 -15 159 13 65 31 53 42 -21 20 -68 -21 -99 -20 -99 0 0 24 20
55 53 83 46 39 87 101 87 133 0 36 -21 37 -55 1z m21 -41 c-8 -16 -23 -35 -32
-43 -14 -11 -12 -4 6 29 26 46 49 59 26 14z m-188 -88 c3 -24 -35 -77 -50 -68
-12 8 -3 61 14 81 15 18 32 12 36 -13z m-128 -23 c0 -20 -17 -37 -27 -28 -7 8
7 47 18 47 5 0 9 -9 9 -19z"/>
<path d="M680 930 c0 -5 7 -10 15 -10 8 0 15 5 15 10 0 6 -7 10 -15 10 -8 0
-15 -4 -15 -10z"/>
<path d="M1090 902 c-31 -31 -46 -86 -36 -127 5 -20 12 -25 40 -25 32 0 86 32
86 51 0 5 -16 1 -35 -8 -25 -12 -38 -14 -46 -6 -13 13 -1 63 17 63 19 0 48 46
40 65 -9 23 -35 18 -66 -13z"/>
<path d="M675 890 c-4 -6 -9 -35 -12 -65 -7 -66 11 -76 21 -12 4 23 9 52 13
65 5 22 -10 31 -22 12z"/>
<path d="M296 865 c-8 -8 -21 -12 -29 -9 -20 7 -24 -2 -33 -64 -9 -67 7 -68
41 -3 29 58 45 72 45 39 1 -22 1 -22 15 -4 33 44 -1 79 -39 41z"/>
<path d="M382 873 c-35 -13 -57 -118 -27 -129 42 -16 115 35 115 81 0 19 -5
25 -22 25 -12 0 -29 6 -37 14 -9 7 -22 11 -29 9z m23 -43 c9 7 15 8 20 1 7
-12 -7 -42 -29 -60 -13 -11 -17 -10 -22 3 -3 9 -3 28 1 44 4 15 10 21 12 14 4
-9 8 -10 18 -2z"/>
<path d="M855 854 c-21 -21 -16 -83 8 -98 13 -8 24 -7 44 4 37 21 43 43 9 34
-25 -6 -26 -5 -15 19 22 48 -10 76 -46 41z m35 -21 c0 -5 -4 -15 -10 -23 -11
-18 -25 -7 -17 15 6 15 27 21 27 8z"/>
<path d="M110 480 l0 -50 50 0 50 0 -1 53 c-2 50 -2 51 -8 13 -8 -55 -31 -60
-31 -7 0 23 -4 41 -10 41 -5 0 -10 -18 -10 -40 0 -22 -4 -40 -10 -40 -5 0 -10
18 -10 40 0 22 -4 40 -10 40 -5 0 -10 -22 -10 -50z"/>
<path d="M810 516 c0 -7 -7 -19 -15 -26 -8 -7 -15 -21 -15 -32 0 -10 7 -21 15
-24 8 -4 15 -12 15 -20 0 -19 6 -18 30 6 24 24 26 68 5 76 -8 4 -15 12 -15 20
0 8 -4 14 -10 14 -5 0 -10 -6 -10 -14z m-3 -58 c-3 -8 -6 -5 -6 6 -1 11 2 17
5 13 3 -3 4 -12 1 -19z m43 1 c0 -5 -4 -9 -10 -9 -5 0 -10 7 -10 16 0 8 5 12
10 9 6 -3 10 -10 10 -16z"/>
<path d="M230 463 c0 -33 20 -49 20 -15 1 15 2 15 15 -2 18 -24 30 -15 16 12
-7 13 -7 22 1 30 8 8 2 10 -21 10 -28 -1 -31 -4 -31 -35z"/>
<path d="M302 468 c2 -28 7 -33 28 -33 21 0 26 5 28 33 3 30 1 32 -28 32 -29
0 -31 -2 -28 -32z m38 2 c0 -19 -11 -26 -23 -14 -8 8 3 34 14 34 5 0 9 -9 9
-20z"/>
<path d="M380 481 c0 -11 -3 -26 -6 -35 -3 -9 -1 -16 5 -16 6 0 14 13 17 30 4
16 10 28 14 25 4 -2 5 -16 2 -30 -2 -15 0 -25 7 -25 6 0 11 16 11 35 0 31 -3
35 -25 35 -18 0 -25 -5 -25 -19z"/>
<path d="M465 490 c18 -7 19 -8 3 -15 -28 -11 -23 -45 7 -45 22 0 25 4 25 35
0 32 -3 35 -27 34 -25 0 -26 -1 -8 -9z"/>
<path d="M550 465 c0 -19 5 -35 10 -35 6 0 10 14 10 31 0 17 4 28 10 24 6 -3
10 -17 10 -31 0 -13 5 -24 10 -24 6 0 10 16 10 35 0 32 -2 35 -30 35 -28 0
-30 -3 -30 -35z"/>
<path d="M628 455 c-2 -26 0 -49 4 -51 5 -3 8 2 8 10 0 8 10 16 23 18 17 2 22
10 22 33 0 25 -4 31 -26 33 -25 3 -27 0 -31 -43z m42 11 c0 -8 -4 -17 -9 -21
-12 -7 -24 12 -16 25 9 15 25 12 25 -4z"/>
<path d="M711 486 c-21 -25 -4 -58 27 -54 23 2 27 8 27 33 0 23 -5 31 -21 33
-11 2 -26 -4 -33 -12z m37 -23 c-4 -22 -22 -20 -26 1 -2 10 3 16 13 16 10 0
15 -7 13 -17z"/>
<path d="M887 493 c-4 -3 -7 -19 -7 -35 0 -24 4 -28 28 -27 16 1 20 3 10 6
-27 7 -22 23 7 23 16 0 25 -6 25 -15 0 -10 10 -15 26 -15 l26 0 -23 20 -24 20
23 6 c12 3 22 10 22 15 0 15 -39 10 -48 -7 -8 -14 -10 -14 -21 0 -14 17 -33
21 -44 9z"/>
<path d="M1023 493 c-7 -2 -13 -18 -13 -34 0 -25 4 -29 28 -29 23 1 24 2 10
11 -22 12 -24 39 -3 39 8 0 15 5 15 10 0 10 -16 12 -37 3z"/>
<path d="M1070 465 c0 -38 15 -45 36 -17 13 16 13 16 15 -3 1 -13 4 -10 8 10
9 38 -4 55 -24 29 -13 -17 -14 -17 -15 -1 0 33 -20 17 -20 -18z"/>
<path d="M1163 493 c-7 -2 -13 -18 -13 -34 0 -25 4 -29 29 -29 21 0 32 6 36
20 11 34 -17 58 -52 43z m32 -31 c0 -18 -20 -15 -23 4 -3 10 1 15 10 12 7 -3
13 -10 13 -16z"/>
<path d="M1230 468 c0 -37 13 -50 24 -25 5 10 7 10 12 0 10 -23 24 -13 24 17
0 30 -14 41 -23 18 -3 -9 -10 -7 -21 7 -15 19 -15 18 -16 -17z"/>
<path d="M1315 490 c-3 -5 2 -10 12 -11 14 0 14 -2 -4 -9 -13 -5 -23 -16 -23
-25 0 -16 3 -17 50 -17 49 0 50 1 50 29 0 32 16 20 23 -17 3 -18 5 -15 6 13 1
33 -2 37 -24 37 -20 0 -25 -5 -25 -25 0 -14 -4 -25 -10 -25 -5 0 -10 11 -10
24 0 13 -7 27 -16 30 -21 8 -22 8 -29 -4z m25 -40 c0 -5 -5 -10 -11 -10 -5 0
-7 5 -4 10 3 6 8 10 11 10 2 0 4 -4 4 -10z"/>
<path d="M1450 455 c0 -36 10 -42 44 -29 24 9 20 44 -4 44 -11 0 -20 5 -20 10
0 6 -4 10 -10 10 -5 0 -10 -16 -10 -35z m40 -5 c0 -5 -4 -10 -10 -10 -5 0 -10
5 -10 10 0 6 5 10 10 10 6 0 10 -4 10 -10z"/>
<path d="M1520 455 c0 -19 5 -35 10 -35 6 0 10 7 10 15 0 21 28 19 33 -2 3
-10 5 0 5 22 0 22 -2 34 -5 28 -6 -15 -33 -17 -33 -3 0 6 -4 10 -10 10 -5 0
-10 -16 -10 -35z"/>
<path d="M1600 455 c0 -37 14 -44 51 -25 13 8 19 7 19 0 0 -6 5 -8 10 -5 6 3
10 19 10 36 0 16 -4 29 -10 29 -5 0 -10 -7 -10 -16 0 -11 -6 -14 -22 -8 -13 3
-24 11 -26 15 -9 22 -22 6 -22 -26z m35 -5 c3 -5 1 -10 -4 -10 -6 0 -11 5 -11
10 0 6 2 10 4 10 3 0 8 -4 11 -10z"/>
<path d="M1704 453 c0 -18 4 -33 8 -33 4 0 8 5 8 11 0 8 5 7 15 -1 18 -15 34
-5 17 12 -7 7 -8 17 -2 28 7 14 4 17 -19 17 -24 0 -27 -4 -27 -34z"/>
<path d="M508 354 c-3 -5 -6 -21 -6 -36 1 -32 22 -37 37 -10 10 16 10 16 11 0
0 -10 5 -18 10 -18 6 0 10 16 10 35 0 38 -22 49 -35 18 -7 -17 -8 -17 -14 1
-4 11 -10 15 -13 10z"/>
<path d="M587 353 c-9 -8 -9 -63 -1 -63 4 0 13 8 20 18 12 16 13 16 19 0 12
-30 25 -20 25 17 0 37 -13 47 -25 18 -6 -17 -7 -17 -19 -1 -7 10 -16 15 -19
11z"/>
<path d="M670 350 c-6 -4 -10 -18 -8 -31 2 -17 10 -25 28 -27 22 -2 23 -1 8 8
-29 18 -22 40 12 40 25 0 30 -4 30 -25 0 -14 5 -25 10 -25 6 0 10 11 10 25 0
16 6 25 15 25 11 0 15 -12 15 -42 1 -34 3 -39 11 -25 5 9 19 17 30 17 17 0 20
6 17 32 l-3 32 -81 2 c-45 1 -87 -2 -94 -6z m160 -30 c0 -11 -4 -20 -9 -20
-14 0 -23 18 -16 30 10 17 25 11 25 -10z"/>
<path d="M860 345 c0 -2 5 -15 11 -29 9 -20 9 -29 -1 -41 -10 -12 -10 -15 2
-15 13 0 48 58 48 80 0 18 -20 10 -20 -7 -1 -17 -1 -17 -14 0 -12 16 -26 23
-26 12z"/>
<path d="M930 319 c0 -30 14 -39 24 -16 5 10 7 10 12 0 11 -24 24 -13 18 13
-6 22 -4 25 12 22 12 -2 20 -13 22 -31 4 -33 22 -26 22 9 0 13 5 24 10 24 6 0
10 -11 10 -24 0 -28 24 -40 51 -25 13 6 19 18 17 32 -3 21 -8 22 -100 24 l-98
1 0 -29z m172 -11 c-15 -15 -26 -4 -18 18 5 13 9 15 18 6 9 -9 9 -15 0 -24z"/>
<path d="M1140 306 c0 -25 5 -46 10 -46 6 0 10 3 10 8 0 4 10 12 23 17 14 7
22 19 22 35 0 21 -5 26 -32 28 -33 3 -33 3 -33 -42z m42 2 c-15 -15 -26 -4
-18 18 5 13 9 15 18 6 9 -9 9 -15 0 -24z"/>
<path d="M1227 343 c-22 -21 0 -63 33 -63 15 0 31 37 24 54 -6 16 -45 22 -57
9z m35 -35 c-15 -15 -26 -4 -18 18 5 13 9 15 18 6 9 -9 9 -15 0 -24z"/>
<path d="M1300 315 c0 -34 2 -36 28 -33 23 3 27 8 27 33 0 25 -4 30 -28 33
-25 3 -27 1 -27 -33z m40 -9 c0 -3 -4 -8 -10 -11 -5 -3 -10 -1 -10 4 0 6 5 11
10 11 6 0 10 -2 10 -4z"/>
<path d="M33 304 c-10 -4 -13 -44 -13 -150 l0 -144 143 -1 c78 0 223 -2 322
-5 171 -5 182 -4 199 14 16 19 16 22 1 45 -11 17 -13 27 -6 32 6 3 11 13 11
21 0 13 -13 15 -73 14 -95 -3 -97 -3 -97 16 0 13 -5 13 -33 -4 -17 -11 -52
-26 -76 -33 -39 -12 -45 -11 -57 5 -9 13 -10 25 -4 42 7 17 6 24 -3 24 -6 1 4
15 24 33 l37 32 -42 -3 c-30 -3 -50 -13 -76 -37 -19 -19 -61 -46 -93 -60 -96
-44 -122 -20 -63 59 l36 46 -31 0 c-16 0 -44 -7 -60 -16 -17 -8 -33 -13 -35
-11 -6 5 49 53 68 60 7 2 11 7 8 10 -8 8 -74 17 -87 11z"/>
<path d="M1650 27 l-95 -22 70 -3 c78 -3 155 13 155 34 0 18 -15 17 -130 -9z"/>
</g>
</svg>
